G04 #@! TF.FileFunction,Copper,L4,Bot,Signal*
%FSLAX46Y46*%
G04 Gerber Fmt 4.6, Leading zero omitted, Abs format (unit mm)*
G04 Created by KiCad (PCBNEW 4.0.5+dfsg1-4) date Fri Jan 29 18:53:19 2021*
%MOMM*%
%LPD*%
G01*
G04 APERTURE LIST*
%ADD10C,0.100000*%
%ADD11C,0.600000*%
%ADD12C,0.250000*%
G04 APERTURE END LIST*
D10*
D11*
X141200000Y-106300000D03*
X142200000Y-118500000D03*
X142400000Y-106300000D03*
X143300000Y-118500000D03*
X143600000Y-106200000D03*
X146800000Y-106700000D03*
X145500000Y-105900000D03*
X143700000Y-107400000D03*
X147800000Y-106100000D03*
X147700000Y-118500000D03*
X148700000Y-106100000D03*
X146500000Y-118500000D03*
D12*
X143000000Y-120800000D02*
X148400000Y-120800000D01*
X141500000Y-120800000D02*
X143000000Y-120800000D01*
X141800000Y-120800000D02*
X141500000Y-121100000D01*
X141500000Y-121900000D02*
X141500000Y-121100000D01*
X141500000Y-121100000D02*
X141500000Y-120800000D01*
X143000000Y-120800000D02*
X141800000Y-120800000D01*
X148500000Y-116800000D02*
X141500000Y-116800000D01*
X141500000Y-116800000D02*
X141400000Y-116700000D01*
X141400000Y-116500000D02*
X148500000Y-116500000D01*
X148500000Y-116300000D02*
X141400000Y-116300000D01*
X148500000Y-116000000D02*
X148500000Y-116300000D01*
X148500000Y-116300000D02*
X148500000Y-116500000D01*
X148500000Y-116500000D02*
X148500000Y-116800000D01*
X148500000Y-116800000D02*
X148500000Y-117300000D01*
X148500000Y-117300000D02*
X148700000Y-117500000D01*
X141400000Y-116600000D02*
X148500000Y-116600000D01*
X148500000Y-121000000D02*
X141700000Y-121000000D01*
X141700000Y-121000000D02*
X141500000Y-120800000D01*
X141500000Y-120600000D02*
X148400000Y-120600000D01*
X148400000Y-120600000D02*
X148500000Y-120500000D01*
X148400000Y-120800000D02*
X148500000Y-120700000D01*
X141400000Y-116500000D02*
X141400000Y-116600000D01*
X141400000Y-116600000D02*
X141400000Y-116500000D01*
X148500000Y-115900000D02*
X148500000Y-116000000D01*
X148500000Y-116000000D02*
X148500000Y-115900000D01*
X148500000Y-115900000D02*
X148500000Y-115900000D01*
X148500000Y-115900000D02*
X148500000Y-115600000D01*
X148500000Y-115600000D02*
X148500000Y-115400000D01*
X141400000Y-117700000D02*
X141400000Y-117500000D01*
X141400000Y-116900000D02*
X141400000Y-116700000D01*
X141400000Y-117300000D02*
X141400000Y-116900000D01*
X141400000Y-117500000D02*
X141400000Y-117300000D01*
X141400000Y-116700000D02*
X141400000Y-116500000D01*
X141400000Y-116500000D02*
X141400000Y-116300000D01*
X141400000Y-116300000D02*
X141400000Y-116100000D01*
X141300000Y-115400000D02*
X140700000Y-115400000D01*
X141400000Y-115500000D02*
X141300000Y-115400000D01*
X141400000Y-115800000D02*
X141400000Y-115500000D01*
X141400000Y-116100000D02*
X141400000Y-115800000D01*
X141000000Y-119700000D02*
X141500000Y-119700000D01*
X141500000Y-120600000D02*
X141500000Y-119700000D01*
X141500000Y-121900000D02*
X140900000Y-121900000D01*
X141500000Y-120800000D02*
X141500000Y-120600000D01*
X148500000Y-119700000D02*
X148500000Y-120500000D01*
X148500000Y-120500000D02*
X148500000Y-120700000D01*
X148500000Y-120700000D02*
X148500000Y-121000000D01*
X148500000Y-121000000D02*
X148500000Y-121900000D01*
X140700000Y-117700000D02*
X141100000Y-117700000D01*
X141100000Y-117700000D02*
X141200000Y-117700000D01*
X141300000Y-119700000D02*
X141000000Y-119700000D01*
X141000000Y-119700000D02*
X140600000Y-119700000D01*
X148700000Y-119700000D02*
X149300000Y-119700000D01*
X149300000Y-121900000D02*
X148700000Y-121900000D01*
X140700000Y-121900000D02*
X140900000Y-121900000D01*
X140900000Y-121900000D02*
X141200000Y-121900000D01*
X141200000Y-121900000D02*
X141300000Y-121800000D01*
X140600000Y-119900000D02*
X141300000Y-119900000D01*
X141200000Y-121700000D02*
X140700000Y-121700000D01*
X141300000Y-121800000D02*
X141200000Y-121700000D01*
X141300000Y-119900000D02*
X141300000Y-121800000D01*
X140700000Y-115600000D02*
X141100000Y-115600000D01*
X141200000Y-117500000D02*
X140600000Y-117500000D01*
X141200000Y-115600000D02*
X141200000Y-117500000D01*
X141100000Y-115600000D02*
X141200000Y-115600000D01*
X149300000Y-117500000D02*
X148700000Y-117500000D01*
X148700000Y-117500000D02*
X148700000Y-115700000D01*
X148700000Y-115700000D02*
X148700000Y-115600000D01*
X148700000Y-115600000D02*
X149300000Y-115600000D01*
X149300000Y-115600000D02*
X149300000Y-115400000D01*
X149300000Y-115400000D02*
X148500000Y-115400000D01*
X148500000Y-115400000D02*
X148600000Y-115500000D01*
X148600000Y-115500000D02*
X149100000Y-115500000D01*
X149300000Y-119900000D02*
X148700000Y-119900000D01*
X148700000Y-121700000D02*
X149300000Y-121700000D01*
X148700000Y-119900000D02*
X148700000Y-121700000D01*
M02*
