G04 #@! TF.FileFunction,Soldermask,Bot*
%FSLAX46Y46*%
G04 Gerber Fmt 4.6, Leading zero omitted, Abs format (unit mm)*
G04 Created by KiCad (PCBNEW 4.0.5+dfsg1-4) date Fri Jan 29 18:53:19 2021*
%MOMM*%
%LPD*%
G01*
G04 APERTURE LIST*
%ADD10C,0.100000*%
%ADD11C,0.254000*%
G04 APERTURE END LIST*
D10*
D11*
G36*
X141473000Y-117773000D02*
X141127000Y-117773000D01*
X141127000Y-115327000D01*
X141473000Y-115327000D01*
X141473000Y-117773000D01*
X141473000Y-117773000D01*
G37*
X141473000Y-117773000D02*
X141127000Y-117773000D01*
X141127000Y-115327000D01*
X141473000Y-115327000D01*
X141473000Y-117773000D01*
G36*
X148773000Y-117473000D02*
X148527000Y-117473000D01*
X148527000Y-115427000D01*
X148773000Y-115427000D01*
X148773000Y-117473000D01*
X148773000Y-117473000D01*
G37*
X148773000Y-117473000D02*
X148527000Y-117473000D01*
X148527000Y-115427000D01*
X148773000Y-115427000D01*
X148773000Y-117473000D01*
G36*
X148773000Y-121873000D02*
X148427000Y-121873000D01*
X148427000Y-119727000D01*
X148773000Y-119727000D01*
X148773000Y-121873000D01*
X148773000Y-121873000D01*
G37*
X148773000Y-121873000D02*
X148427000Y-121873000D01*
X148427000Y-119727000D01*
X148773000Y-119727000D01*
X148773000Y-121873000D01*
G36*
X141473000Y-121873000D02*
X141227000Y-121873000D01*
X141227000Y-119727000D01*
X141473000Y-119727000D01*
X141473000Y-121873000D01*
X141473000Y-121873000D01*
G37*
X141473000Y-121873000D02*
X141227000Y-121873000D01*
X141227000Y-119727000D01*
X141473000Y-119727000D01*
X141473000Y-121873000D01*
G36*
X141473000Y-119973000D02*
X140627000Y-119973000D01*
X140627000Y-119727000D01*
X141473000Y-119727000D01*
X141473000Y-119973000D01*
X141473000Y-119973000D01*
G37*
X141473000Y-119973000D02*
X140627000Y-119973000D01*
X140627000Y-119727000D01*
X141473000Y-119727000D01*
X141473000Y-119973000D01*
G36*
X141473000Y-121873000D02*
X140654915Y-121873000D01*
X140704115Y-121627000D01*
X141473000Y-121627000D01*
X141473000Y-121873000D01*
X141473000Y-121873000D01*
G37*
X141473000Y-121873000D02*
X140654915Y-121873000D01*
X140704115Y-121627000D01*
X141473000Y-121627000D01*
X141473000Y-121873000D01*
G36*
X149373000Y-119973000D02*
X148427000Y-119973000D01*
X148427000Y-119727000D01*
X149373000Y-119727000D01*
X149373000Y-119973000D01*
X149373000Y-119973000D01*
G37*
X149373000Y-119973000D02*
X148427000Y-119973000D01*
X148427000Y-119727000D01*
X149373000Y-119727000D01*
X149373000Y-119973000D01*
G36*
X149373000Y-121873000D02*
X148527000Y-121873000D01*
X148527000Y-121627000D01*
X149373000Y-121627000D01*
X149373000Y-121873000D01*
X149373000Y-121873000D01*
G37*
X149373000Y-121873000D02*
X148527000Y-121873000D01*
X148527000Y-121627000D01*
X149373000Y-121627000D01*
X149373000Y-121873000D01*
G36*
X149373000Y-115673000D02*
X148527000Y-115673000D01*
X148527000Y-115427000D01*
X149373000Y-115427000D01*
X149373000Y-115673000D01*
X149373000Y-115673000D01*
G37*
X149373000Y-115673000D02*
X148527000Y-115673000D01*
X148527000Y-115427000D01*
X149373000Y-115427000D01*
X149373000Y-115673000D01*
G36*
X149373000Y-117473000D02*
X148527000Y-117473000D01*
X148527000Y-117427000D01*
X149373000Y-117427000D01*
X149373000Y-117473000D01*
X149373000Y-117473000D01*
G37*
X149373000Y-117473000D02*
X148527000Y-117473000D01*
X148527000Y-117427000D01*
X149373000Y-117427000D01*
X149373000Y-117473000D01*
G36*
X141473000Y-115673000D02*
X140627000Y-115673000D01*
X140627000Y-115427000D01*
X141473000Y-115427000D01*
X141473000Y-115673000D01*
X141473000Y-115673000D01*
G37*
X141473000Y-115673000D02*
X140627000Y-115673000D01*
X140627000Y-115427000D01*
X141473000Y-115427000D01*
X141473000Y-115673000D01*
G36*
X141473000Y-117673000D02*
X140627000Y-117673000D01*
X140627000Y-117427000D01*
X141473000Y-117427000D01*
X141473000Y-117673000D01*
X141473000Y-117673000D01*
G37*
X141473000Y-117673000D02*
X140627000Y-117673000D01*
X140627000Y-117427000D01*
X141473000Y-117427000D01*
X141473000Y-117673000D01*
M02*
