G04 #@! TF.FileFunction,Profile,NP*
%FSLAX46Y46*%
G04 Gerber Fmt 4.6, Leading zero omitted, Abs format (unit mm)*
G04 Created by KiCad (PCBNEW 4.0.5+dfsg1-4) date Fri Jan 29 18:53:19 2021*
%MOMM*%
%LPD*%
G01*
G04 APERTURE LIST*
%ADD10C,0.100000*%
%ADD11C,0.150000*%
G04 APERTURE END LIST*
D10*
D11*
X140600000Y-115700000D02*
X140700000Y-115700000D01*
X140600000Y-113700000D02*
X140600000Y-115700000D01*
X149400000Y-113700000D02*
X149400000Y-115700000D01*
X149400000Y-123200000D02*
X140600000Y-123200000D01*
X149400000Y-121600000D02*
X149400000Y-123200000D01*
X140600000Y-121600000D02*
X141200000Y-121600000D01*
X140600000Y-117400000D02*
X141100000Y-117400000D01*
X141200000Y-120000000D02*
X140600000Y-120000000D01*
X140600000Y-115700000D02*
X141100000Y-115700000D01*
X140600000Y-101800000D02*
X140600000Y-113700000D01*
X149400000Y-121600000D02*
X148800000Y-121600000D01*
X149400000Y-120000000D02*
X148800000Y-120000000D01*
X149400000Y-117400000D02*
X148800000Y-117400000D01*
X149400000Y-115700000D02*
X148800000Y-115700000D01*
X149400000Y-117400000D02*
X149400000Y-120000000D01*
X140600000Y-101800000D02*
X149400000Y-101800000D01*
X140600000Y-121600000D02*
X140600000Y-123200000D01*
X140600000Y-117400000D02*
X140600000Y-120000000D01*
X149400000Y-113700000D02*
X149400000Y-101800000D01*
X141200000Y-120000000D02*
X141200000Y-121600000D01*
X148800000Y-120000000D02*
X148800000Y-121600000D01*
X141100000Y-115700000D02*
X141100000Y-117300000D01*
X148800000Y-115700000D02*
X148800000Y-117400000D01*
M02*
