G04 #@! TF.FileFunction,Legend,Top*
%FSLAX46Y46*%
G04 Gerber Fmt 4.6, Leading zero omitted, Abs format (unit mm)*
G04 Created by KiCad (PCBNEW 4.0.5+dfsg1-4) date Fri Jan 29 18:53:19 2021*
%MOMM*%
%LPD*%
G01*
G04 APERTURE LIST*
%ADD10C,0.100000*%
%ADD11C,0.150000*%
G04 APERTURE END LIST*
D10*
D11*
X141500000Y-115300000D02*
X141800000Y-115300000D01*
X148500000Y-115300000D02*
X148200000Y-115300000D01*
X148500000Y-123200000D02*
X148500000Y-115300000D01*
X141500000Y-123200000D02*
X148500000Y-123200000D01*
X141500000Y-115300000D02*
X141500000Y-123200000D01*
X140600000Y-101800000D02*
X140600000Y-107900000D01*
X149400000Y-101800000D02*
X149400000Y-107900000D01*
X140600000Y-101900000D02*
X149400000Y-101900000D01*
X144238095Y-113452381D02*
X144238095Y-114261905D01*
X144285714Y-114357143D01*
X144333333Y-114404762D01*
X144428571Y-114452381D01*
X144619048Y-114452381D01*
X144714286Y-114404762D01*
X144761905Y-114357143D01*
X144809524Y-114261905D01*
X144809524Y-113452381D01*
X145809524Y-114452381D02*
X145238095Y-114452381D01*
X145523809Y-114452381D02*
X145523809Y-113452381D01*
X145428571Y-113595238D01*
X145333333Y-113690476D01*
X145238095Y-113738095D01*
X144666667Y-105752381D02*
X144666667Y-106466667D01*
X144619047Y-106609524D01*
X144523809Y-106704762D01*
X144380952Y-106752381D01*
X144285714Y-106752381D01*
X145666667Y-106752381D02*
X145095238Y-106752381D01*
X145380952Y-106752381D02*
X145380952Y-105752381D01*
X145285714Y-105895238D01*
X145190476Y-105990476D01*
X145095238Y-106038095D01*
M02*
