G04 #@! TF.FileFunction,Copper,L1,Top,Signal*
%FSLAX46Y46*%
G04 Gerber Fmt 4.6, Leading zero omitted, Abs format (unit mm)*
G04 Created by KiCad (PCBNEW 4.0.5+dfsg1-4) date Fri Jan 29 18:53:19 2021*
%MOMM*%
%LPD*%
G01*
G04 APERTURE LIST*
%ADD10C,0.100000*%
%ADD11R,0.300000X0.700000*%
%ADD12R,1.200000X3.000000*%
%ADD13R,0.700000X3.000000*%
%ADD14C,0.600000*%
%ADD15C,0.250000*%
G04 APERTURE END LIST*
D10*
D11*
X145000000Y-117240000D03*
X144500000Y-117240000D03*
X144000000Y-117240000D03*
X143500000Y-117240000D03*
X143000000Y-117240000D03*
X142500000Y-117240000D03*
X142000000Y-117240000D03*
X145500000Y-117240000D03*
X146000000Y-117240000D03*
X147000000Y-117240000D03*
X146500000Y-117240000D03*
X147500000Y-117240000D03*
X146250000Y-115540000D03*
X145750000Y-115540000D03*
X145250000Y-115540000D03*
X144750000Y-115540000D03*
X144250000Y-115540000D03*
X146750000Y-115540000D03*
X147250000Y-115540000D03*
X147750000Y-115540000D03*
X143750000Y-115540000D03*
X143250000Y-115540000D03*
X142750000Y-115540000D03*
X142250000Y-115540000D03*
D12*
X141200000Y-103300000D03*
D13*
X142500000Y-103300000D03*
X143500000Y-103300000D03*
X144500000Y-103300000D03*
X145500000Y-103300000D03*
X146500000Y-103300000D03*
X147600000Y-103300000D03*
D12*
X148900000Y-103300000D03*
D14*
X141200000Y-106300000D03*
X142200000Y-118500000D03*
X142400000Y-106300000D03*
X143300000Y-118500000D03*
X143600000Y-106200000D03*
X146800000Y-106700000D03*
X145500000Y-105900000D03*
X143700000Y-107400000D03*
X147800000Y-106100000D03*
X147700000Y-118500000D03*
X148700000Y-106100000D03*
X146500000Y-118500000D03*
D15*
X142500000Y-117240000D02*
X142500000Y-118200000D01*
X141200000Y-106300000D02*
X141200000Y-103300000D01*
X142500000Y-118200000D02*
X142200000Y-118500000D01*
X143000000Y-117240000D02*
X143000000Y-118200000D01*
X142500000Y-106200000D02*
X142500000Y-103300000D01*
X142400000Y-106300000D02*
X142500000Y-106200000D01*
X143000000Y-118200000D02*
X143300000Y-118500000D01*
X147250000Y-115540000D02*
X147250000Y-107150000D01*
X143500000Y-106100000D02*
X143500000Y-103300000D01*
X143600000Y-106200000D02*
X143500000Y-106100000D01*
X147250000Y-107150000D02*
X146800000Y-106700000D01*
X143250000Y-115540000D02*
X143250000Y-108850000D01*
X144500000Y-107600000D02*
X144500000Y-103300000D01*
X143250000Y-108850000D02*
X144500000Y-107600000D01*
X142750000Y-115540000D02*
X142750000Y-108350000D01*
X145500000Y-105900000D02*
X145500000Y-103300000D01*
X142750000Y-108350000D02*
X143700000Y-107400000D01*
X146750000Y-115540000D02*
X146750000Y-111650000D01*
X146500000Y-105800000D02*
X146500000Y-103300000D01*
X145900000Y-106400000D02*
X146500000Y-105800000D01*
X145900000Y-110800000D02*
X145900000Y-106400000D01*
X146750000Y-111650000D02*
X145900000Y-110800000D01*
X146750000Y-103450000D02*
X146800000Y-103400000D01*
X147000000Y-117240000D02*
X147000000Y-117800000D01*
X147600000Y-105900000D02*
X147600000Y-103300000D01*
X147800000Y-106100000D02*
X147600000Y-105900000D01*
X147000000Y-117800000D02*
X147700000Y-118500000D01*
X146500000Y-117240000D02*
X146500000Y-118500000D01*
X148900000Y-105900000D02*
X148900000Y-103300000D01*
X148700000Y-106100000D02*
X148900000Y-105900000D01*
M02*
