G04 #@! TF.FileFunction,Soldermask,Bot*
%FSLAX46Y46*%
G04 Gerber Fmt 4.6, Leading zero omitted, Abs format (unit mm)*
G04 Created by KiCad (PCBNEW 4.0.5+dfsg1-4) date Fri Jan 29 20:02:23 2021*
%MOMM*%
%LPD*%
G01*
G04 APERTURE LIST*
%ADD10C,0.100000*%
%ADD11C,0.254000*%
G04 APERTURE END LIST*
D10*
D11*
G36*
X152373000Y-119573000D02*
X152027000Y-119573000D01*
X152027000Y-117527000D01*
X152373000Y-117527000D01*
X152373000Y-119573000D01*
X152373000Y-119573000D01*
G37*
X152373000Y-119573000D02*
X152027000Y-119573000D01*
X152027000Y-117527000D01*
X152373000Y-117527000D01*
X152373000Y-119573000D01*
G36*
X152973000Y-117673000D02*
X152027000Y-117673000D01*
X152027000Y-117527000D01*
X152973000Y-117527000D01*
X152973000Y-117673000D01*
X152973000Y-117673000D01*
G37*
X152973000Y-117673000D02*
X152027000Y-117673000D01*
X152027000Y-117527000D01*
X152973000Y-117527000D01*
X152973000Y-117673000D01*
G36*
X152973000Y-119573000D02*
X152027000Y-119573000D01*
X152027000Y-119427000D01*
X152973000Y-119427000D01*
X152973000Y-119573000D01*
X152973000Y-119573000D01*
G37*
X152973000Y-119573000D02*
X152027000Y-119573000D01*
X152027000Y-119427000D01*
X152973000Y-119427000D01*
X152973000Y-119573000D01*
G36*
X152973000Y-121973000D02*
X152127000Y-121973000D01*
X152127000Y-121827000D01*
X152973000Y-121827000D01*
X152973000Y-121973000D01*
X152973000Y-121973000D01*
G37*
X152973000Y-121973000D02*
X152127000Y-121973000D01*
X152127000Y-121827000D01*
X152973000Y-121827000D01*
X152973000Y-121973000D01*
G36*
X152373000Y-123673000D02*
X152127000Y-123673000D01*
X152127000Y-121827000D01*
X152373000Y-121827000D01*
X152373000Y-123673000D01*
X152373000Y-123673000D01*
G37*
X152373000Y-123673000D02*
X152127000Y-123673000D01*
X152127000Y-121827000D01*
X152373000Y-121827000D01*
X152373000Y-123673000D01*
G36*
X152973000Y-123673000D02*
X152127000Y-123673000D01*
X152127000Y-123527000D01*
X152973000Y-123527000D01*
X152973000Y-123673000D01*
X152973000Y-123673000D01*
G37*
X152973000Y-123673000D02*
X152127000Y-123673000D01*
X152127000Y-123527000D01*
X152973000Y-123527000D01*
X152973000Y-123673000D01*
G36*
X145073000Y-121973000D02*
X144127000Y-121973000D01*
X144127000Y-121827000D01*
X145073000Y-121827000D01*
X145073000Y-121973000D01*
X145073000Y-121973000D01*
G37*
X145073000Y-121973000D02*
X144127000Y-121973000D01*
X144127000Y-121827000D01*
X145073000Y-121827000D01*
X145073000Y-121973000D01*
G36*
X145073000Y-123673000D02*
X144127000Y-123673000D01*
X144127000Y-123527000D01*
X145073000Y-123527000D01*
X145073000Y-123673000D01*
X145073000Y-123673000D01*
G37*
X145073000Y-123673000D02*
X144127000Y-123673000D01*
X144127000Y-123527000D01*
X145073000Y-123527000D01*
X145073000Y-123673000D01*
G36*
X145073000Y-123673000D02*
X144727000Y-123673000D01*
X144727000Y-121827000D01*
X145073000Y-121827000D01*
X145073000Y-123673000D01*
X145073000Y-123673000D01*
G37*
X145073000Y-123673000D02*
X144727000Y-123673000D01*
X144727000Y-121827000D01*
X145073000Y-121827000D01*
X145073000Y-123673000D01*
G36*
X145073000Y-119573000D02*
X144127000Y-119573000D01*
X144127000Y-119427000D01*
X145073000Y-119427000D01*
X145073000Y-119573000D01*
X145073000Y-119573000D01*
G37*
X145073000Y-119573000D02*
X144127000Y-119573000D01*
X144127000Y-119427000D01*
X145073000Y-119427000D01*
X145073000Y-119573000D01*
G36*
X145073000Y-117673000D02*
X144127000Y-117673000D01*
X144127000Y-117527000D01*
X145073000Y-117527000D01*
X145073000Y-117673000D01*
X145073000Y-117673000D01*
G37*
X145073000Y-117673000D02*
X144127000Y-117673000D01*
X144127000Y-117527000D01*
X145073000Y-117527000D01*
X145073000Y-117673000D01*
G36*
X145073000Y-119573000D02*
X144727000Y-119573000D01*
X144727000Y-117527000D01*
X145073000Y-117527000D01*
X145073000Y-119573000D01*
X145073000Y-119573000D01*
G37*
X145073000Y-119573000D02*
X144727000Y-119573000D01*
X144727000Y-117527000D01*
X145073000Y-117527000D01*
X145073000Y-119573000D01*
M02*
