G04 #@! TF.FileFunction,Legend,Top*
%FSLAX46Y46*%
G04 Gerber Fmt 4.6, Leading zero omitted, Abs format (unit mm)*
G04 Created by KiCad (PCBNEW 4.0.5+dfsg1-4) date Fri Jan 29 20:02:23 2021*
%MOMM*%
%LPD*%
G01*
G04 APERTURE LIST*
%ADD10C,0.100000*%
%ADD11C,0.150000*%
G04 APERTURE END LIST*
D10*
D11*
X144200000Y-103800000D02*
X144200000Y-109900000D01*
X153000000Y-103800000D02*
X153000000Y-109900000D01*
X144200000Y-103900000D02*
X153000000Y-103900000D01*
X145050000Y-117260000D02*
X145350000Y-117260000D01*
X152050000Y-117260000D02*
X151750000Y-117260000D01*
X152050000Y-125160000D02*
X152050000Y-117260000D01*
X145050000Y-125160000D02*
X152050000Y-125160000D01*
X145050000Y-117260000D02*
X145050000Y-125160000D01*
X148266667Y-107752381D02*
X148266667Y-108466667D01*
X148219047Y-108609524D01*
X148123809Y-108704762D01*
X147980952Y-108752381D01*
X147885714Y-108752381D01*
X149266667Y-108752381D02*
X148695238Y-108752381D01*
X148980952Y-108752381D02*
X148980952Y-107752381D01*
X148885714Y-107895238D01*
X148790476Y-107990476D01*
X148695238Y-108038095D01*
X147788095Y-115412381D02*
X147788095Y-116221905D01*
X147835714Y-116317143D01*
X147883333Y-116364762D01*
X147978571Y-116412381D01*
X148169048Y-116412381D01*
X148264286Y-116364762D01*
X148311905Y-116317143D01*
X148359524Y-116221905D01*
X148359524Y-115412381D01*
X149359524Y-116412381D02*
X148788095Y-116412381D01*
X149073809Y-116412381D02*
X149073809Y-115412381D01*
X148978571Y-115555238D01*
X148883333Y-115650476D01*
X148788095Y-115698095D01*
M02*
